<svg width="155" height="80" viewBox="0 0 155 80" fill="none" xmlns="http://www.w3.org/2000/svg">
<path d="M63.476 20.8346V18.6582H16.7354V20.8346H38.859V25.6947C29.3714 26.2863 22.3772 33.682 22.3772 43.3809C22.3772 53.0586 29.3714 60.4543 38.859 61.0671V66.8146H41.3312V61.0671C50.1215 60.5599 56.4184 54.7491 57.6017 46.2969H55.1717C54.0307 53.3333 48.7058 58.1722 41.3312 58.6582V54.1152C47.2478 53.608 50.8611 48.7903 50.8611 44.2895V43.402H43.719V45.5784H48.3043C47.7126 48.4944 45.177 51.2625 41.3101 51.6851V35.0766C44.7755 35.4358 47.2266 37.4221 48.093 40.486H50.5653C49.6144 36.0275 46.1701 33.0692 41.3101 32.6677V28.1247C48.6846 28.6107 54.0095 33.4495 55.1506 40.486H57.5806C56.3973 32.0338 50.1004 26.2229 41.3101 25.7158V20.8346H63.476ZM24.7861 43.3809C24.7861 34.9287 30.6392 28.6952 38.859 28.1035V32.6677C33.2594 33.2594 29.3291 37.57 29.3291 43.3597C29.3291 49.1284 33.2594 53.4178 38.859 54.0518V58.6371C30.6392 58.0665 24.7861 51.8331 24.7861 43.3809ZM38.859 35.0977V51.6429C34.5906 51.0512 31.738 47.8183 31.738 43.3809C31.738 38.9012 34.6117 35.6682 38.859 35.0977Z" fill="#5A6634"/>
<path d="M40 80C28.6952 80 18.4258 75.8373 11.0935 68.2726C3.93027 60.898 0 50.8611 0 40C0 29.1389 3.93027 19.102 11.0935 11.7274C18.4258 4.1627 28.6952 0 40 0C51.3048 0 61.5742 4.1627 68.9065 11.7274C76.0486 19.102 80 29.1389 80 40C80 50.8611 76.0697 60.898 68.9065 68.2726C61.5742 75.8373 51.3048 80 40 80ZM40 2.2187C29.308 2.2187 19.588 6.14897 12.6783 13.2699C5.93766 20.2219 2.2187 29.7095 2.2187 40C2.2187 50.2905 5.93766 59.7781 12.6783 66.73C19.588 73.851 29.308 77.7813 40 77.7813C50.692 77.7813 60.412 73.851 67.3217 66.73C74.0623 59.7781 77.7813 50.2905 77.7813 40C77.7813 29.7095 74.0623 20.2219 67.3217 13.2699C60.3909 6.14897 50.692 2.2187 40 2.2187Z" fill="#5A6634"/>
<path d="M87.5014 20.8769H95.6155V21.7855H92.2768V31.5267H90.84V21.7855H87.5014V20.8769Z" fill="#5A6634"/>
<path d="M105.251 26.4976H99.4824V31.5267H98.0455V20.8769H99.4824V25.6313H105.251V20.8769H106.688V31.5267H105.251V26.4976Z" fill="#5A6634"/>
<path d="M110.28 20.8769H111.717V31.5267H110.28V20.8769Z" fill="#5A6634"/>
<path d="M121.162 31.5267L118.141 26.9836C117.887 27.0047 117.633 27.0259 117.359 27.0259C117.232 27.0259 117.084 27.0259 116.725 27.0047V31.5267H115.288V20.8769H117.993C119.979 20.8769 121.585 21.701 121.585 23.7506C121.585 25.1452 120.74 26.0961 119.577 26.6033L122.895 31.5267H121.162ZM116.746 21.6798V26.2229C117.042 26.244 117.317 26.244 117.401 26.244C119.113 26.244 120 25.2298 120 23.8774C120 22.3983 119.028 21.6798 117.655 21.6798H116.746Z" fill="#5A6634"/>
<path d="M125.262 20.8769H128.664C131.516 20.8769 134.179 22.356 134.179 26.1173C134.179 29.6883 131.22 31.5267 128.431 31.5267H125.283V20.8769H125.262ZM126.698 21.6798V30.7237H128.41C130.713 30.7237 132.509 29.308 132.509 26.2652C132.509 23.5605 131.009 21.6798 128.283 21.6798H126.698Z" fill="#5A6634"/>
<path d="M92.9531 49.4453C90.2061 49.4453 87.8817 47.3957 87.8817 44.0359C87.8817 40.4649 90.354 38.3941 93.0165 38.3941C94.8759 38.3941 96.6298 39.4083 96.7354 41.2467L95.0661 41.4369C94.9393 40 94.0307 39.2393 92.6995 39.2393C90.8823 39.2393 89.382 40.9086 89.382 43.3809C89.382 46.1278 91.1358 48.1141 93.4391 48.1141C94.8759 48.1141 96.1649 47.4379 96.9045 46.2335C96.672 48.4099 94.8125 49.4453 92.9531 49.4453Z" fill="#5A6634"/>
<path d="M99.4824 38.6054H100.919V44.9234C100.919 47.1844 101.68 48.3888 103.708 48.3888C105.42 48.3888 106.519 47.2689 106.519 44.9868V38.6054H107.47V44.9445C107.47 47.9662 105.969 49.4453 103.561 49.4453C101.088 49.4453 99.4613 48.2831 99.4613 45.515V38.6054H99.4824Z" fill="#5A6634"/>
<path d="M110.935 38.6054H112.372V48.3465H116.767V49.2551H110.935V38.6054Z" fill="#5A6634"/>
<path d="M117.147 38.6054H125.262V39.514H121.923V49.2551H120.486V39.514H117.147V38.6054Z" fill="#5A6634"/>
<path d="M127.544 38.6054H128.981V44.9234C128.981 47.1844 129.741 48.3888 131.77 48.3888C133.481 48.3888 134.58 47.2689 134.58 44.9868V38.6054H135.531V44.9445C135.531 47.9662 134.031 49.4453 131.622 49.4453C129.15 49.4453 127.523 48.2831 127.523 45.515V38.6054H127.544Z" fill="#5A6634"/>
<path d="M144.85 49.2551L141.828 44.7121C141.574 44.7332 141.321 44.7543 141.046 44.7543C140.919 44.7543 140.771 44.7543 140.412 44.7332V49.2551H138.975V38.6054H141.68C143.666 38.6054 145.272 39.4295 145.272 41.4791C145.272 42.8737 144.427 43.8246 143.265 44.3317L146.582 49.2551H144.85ZM140.433 39.4083V43.9514C140.729 43.9725 141.004 43.9725 141.088 43.9725C142.8 43.9725 143.687 42.9583 143.687 41.6059C143.687 40.1268 142.715 39.4083 141.342 39.4083H140.433Z" fill="#5A6634"/>
<path d="M148.949 38.6054H154.633V39.4929H150.386V43.2118H153.872V44.057H150.386V48.3465H154.76V49.234H148.928V38.6054H148.949Z" fill="#5A6634"/>
<path d="M95.6789 66.9836V65.3777C95.045 66.4342 93.9673 67.1738 92.4459 67.1738C90.1004 67.1738 87.8817 65.1664 87.8817 61.701C87.8817 58.0666 90.5864 56.1226 93.0165 56.1226C95.1506 56.1226 96.6932 57.2425 96.8411 58.9752L95.1718 59.1653C95.0872 57.8975 94.2209 56.9678 92.784 56.9678C90.8823 56.9678 89.3397 58.5103 89.3397 61.2361C89.3397 64.2155 91.326 65.9905 93.2489 65.9905C94.2631 65.9905 95.0872 65.6524 95.6366 65.103V62.3561L97.0735 62.187V66.9836H95.6789Z" fill="#5A6634"/>
<path d="M106.286 66.9836L103.265 62.4406C103.011 62.4617 102.758 62.4828 102.483 62.4828C102.356 62.4828 102.208 62.4828 101.849 62.4617V66.9836H100.412V56.3339H103.117C105.103 56.3339 106.709 57.158 106.709 59.2076C106.709 60.6022 105.864 61.5531 104.702 62.0602L108.019 66.9836H106.286ZM101.87 57.1368V61.6799C102.166 61.701 102.441 61.701 102.525 61.701C104.237 61.701 105.124 60.6867 105.124 59.3344C105.124 57.8553 104.152 57.1368 102.779 57.1368H101.87Z" fill="#5A6634"/>
<path d="M120 61.6799C120 65.0819 117.443 67.1949 114.696 67.1949C111.907 67.1949 109.498 65.1453 109.498 61.6587C109.498 58.2567 112.055 56.1437 114.802 56.1437C117.57 56.1226 120 58.1933 120 61.6799ZM111.168 61.4052C111.168 64.4057 112.858 66.3497 114.908 66.3497C116.894 66.3497 118.352 64.6381 118.352 61.8912C118.352 58.8695 116.64 56.9466 114.57 56.9466C112.583 56.9466 111.168 58.6793 111.168 61.4052Z" fill="#5A6634"/>
<path d="M122.663 56.3339H124.099V62.6519C124.099 64.9128 124.86 66.1173 126.889 66.1173C128.6 66.1173 129.699 64.9974 129.699 62.7153V56.3339H130.65V62.673C130.65 65.6947 129.15 67.1738 126.741 67.1738C124.268 67.1738 122.641 66.0116 122.641 63.2435V56.3339H122.663Z" fill="#5A6634"/>
<path d="M135.552 62.6519V66.9836H134.115V56.3339H136.968C138.954 56.3339 140.56 57.2002 140.56 59.2921C140.56 61.5108 138.468 62.6519 136.355 62.6519H135.552ZM135.552 57.1368V61.8489H136.355C138.067 61.8489 138.954 60.8347 138.954 59.4189C138.954 57.8975 137.982 57.1368 136.609 57.1368H135.552Z" fill="#5A6634"/>
</svg>
